<?xml version="1.0" standalone="no"?>
<!DOCTYPE svg PUBLIC "-//W3C//DTD SVG 20010904//EN"
 "http://www.w3.org/TR/2001/REC-SVG-20010904/DTD/svg10.dtd">
<svg version="1.0" xmlns="http://www.w3.org/2000/svg"
 width="1024.000000pt" height="1024.000000pt" viewBox="0 0 1024.000000 1024.000000"
 preserveAspectRatio="xMidYMid meet">

<g transform="translate(0.000000,1024.000000) scale(0.100000,-0.100000)"
fill="#000000" stroke="none">
<path d="M2241 9883 c4 -23 -3 -43 -13 -43 -52 -2 -177 -219 -221 -385 -64
-238 -77 -359 -58 -535 7 -58 14 -130 17 -160 13 -163 83 -361 236 -667 58
-116 82 -175 85 -210 l4 -48 -14 35 c-7 19 -37 71 -66 115 -76 114 -195 361
-236 485 -92 287 -114 594 -59 858 8 41 33 124 54 185 21 60 35 106 30 101
-12 -13 -67 -174 -89 -262 -82 -324 -38 -735 119 -1112 44 -106 134 -274 187
-348 24 -34 41 -67 37 -73 -10 -17 -118 -5 -188 20 -129 45 -249 142 -321 259
-21 34 -40 62 -42 62 -14 0 60 -112 110 -166 100 -109 227 -175 371 -194 l71
-9 -75 4 c-46 2 -97 12 -130 25 -30 12 -79 23 -107 25 -46 4 -52 2 -50 -13 4
-27 17 -43 29 -36 6 4 8 3 5 -3 -8 -12 41 -59 113 -108 57 -39 72 -54 65 -66
-4 -6 96 -59 112 -59 4 0 -5 9 -20 19 -33 21 -17 34 20 17 15 -7 22 -17 19
-28 -2 -9 1 -19 8 -22 6 -2 4 -5 -4 -5 -20 -1 -199 87 -266 131 -144 93 -261
246 -314 412 -27 82 -35 82 -14 1 32 -120 118 -256 232 -367 101 -98 169 -142
354 -232 170 -83 190 -97 408 -310 160 -155 217 -205 331 -289 171 -125 432
-263 694 -367 219 -86 198 -72 235 -158 18 -43 45 -103 60 -134 23 -49 27 -71
29 -164 2 -99 1 -106 -16 -101 -10 3 -85 24 -168 47 -155 42 -245 81 -400 171
-130 75 -224 117 -302 135 -111 26 -304 83 -370 110 -52 22 -210 69 -301 91
-30 7 -100 -20 -187 -73 -116 -70 -120 -78 -119 -197 1 -124 16 -166 114 -331
81 -137 105 -182 158 -296 84 -184 221 -346 382 -452 105 -68 295 -150 415
-178 82 -19 94 -25 131 -65 22 -24 52 -47 67 -50 38 -10 91 11 131 52 23 24
43 36 63 36 24 0 260 -11 358 -17 22 -1 31 -8 37 -26 3 -14 21 -68 38 -120 57
-171 63 -205 57 -325 -3 -60 -17 -171 -31 -245 -14 -74 -34 -196 -46 -270 -48
-307 -142 -693 -205 -850 -29 -70 -93 -163 -124 -180 -11 -5 -29 -24 -41 -40
l-22 -30 26 -45 c15 -24 34 -48 42 -53 9 -5 13 -12 8 -15 -14 -8 -187 -43
-304 -62 -359 -57 -689 -144 -767 -202 -43 -31 -42 -53 5 -94 49 -43 82 -88
82 -113 0 -18 -7 -14 -41 21 -22 24 -52 46 -66 49 -33 9 -112 0 -225 -24 -51
-11 -136 -27 -188 -36 -641 -107 -634 -106 -657 -132 -22 -24 -22 -30 -22
-267 1 -133 -4 -305 -10 -382 -14 -181 -13 -276 2 -296 7 -8 34 -30 60 -48 29
-19 47 -39 45 -48 -2 -9 -38 -34 -80 -56 -43 -22 -80 -48 -83 -56 -3 -9 -17
-23 -31 -32 l-26 -16 31 -22 c17 -12 31 -20 31 -17 0 3 21 -1 47 -9 27 -8 89
-17 138 -20 50 -4 99 -8 111 -10 12 -3 24 -2 28 2 8 8 154 5 167 -3 5 -3 35 0
66 6 32 5 144 12 248 15 105 2 269 7 365 11 293 10 440 8 470 -6 3 -1 19 -1
35 0 35 1 85 -20 140 -60 22 -16 56 -32 75 -36 19 -4 41 -11 48 -17 7 -5 15
-7 18 -4 3 3 21 -1 41 -9 28 -12 110 -16 419 -18 234 -2 384 0 384 6 0 5 4 6
10 3 11 -7 589 -8 640 -1 80 12 622 1 647 -12 10 -5 27 -7 38 -5 21 5 326 7
405 3 25 -1 56 1 70 4 14 3 117 8 229 11 202 5 226 7 309 26 24 5 48 7 53 3 5
-3 16 0 24 6 8 7 15 10 15 7 0 -3 33 3 73 15 39 11 82 22 93 24 12 2 38 11 58
19 20 8 36 12 36 9 0 -4 6 -2 12 4 35 28 281 43 363 23 22 -5 42 -6 45 -2 7
11 215 3 385 -13 33 -4 179 -8 325 -11 146 -2 270 -5 275 -6 54 -6 230 26 298
54 31 13 37 21 35 40 -6 42 -35 73 -97 103 -33 16 -61 32 -61 36 0 3 16 19 36
35 19 15 49 41 65 57 l29 28 -6 457 c-7 496 -5 480 -64 503 -34 14 -231 54
-305 62 -55 7 -62 5 -82 -16 -16 -16 -23 -38 -25 -76 l-3 -53 -95 73 c-104 80
-204 147 -262 174 -33 15 -39 16 -70 2 -61 -29 -78 -31 -106 -12 -15 10 -30
17 -34 16 -20 -5 -5 22 27 49 42 37 47 79 12 102 -63 41 -344 115 -673 177
-83 15 -161 33 -172 39 -12 6 -47 44 -79 84 -31 39 -89 104 -129 142 -112 109
-168 235 -277 620 -68 241 -89 364 -107 623 -5 85 -10 202 -10 262 0 94 3 114
26 164 24 54 25 62 19 164 -8 125 5 175 49 186 14 3 81 -1 148 -9 67 -8 141
-15 163 -15 32 0 48 -7 75 -32 104 -98 148 -92 223 28 25 40 27 41 117 58 265
48 543 213 691 409 62 83 269 481 269 519 0 11 -15 39 -33 62 -38 46 -52 71
-98 171 -30 66 -32 78 -37 213 -4 112 -8 145 -19 149 -8 3 -44 -8 -81 -25
-124 -57 -176 -72 -387 -113 -304 -58 -370 -82 -616 -222 -116 -66 -153 -82
-250 -106 -63 -16 -133 -31 -156 -34 l-43 -5 0 151 c0 84 -4 169 -9 189 -11
45 -8 48 79 78 216 75 440 189 695 355 145 94 224 159 438 356 267 245 286
259 494 355 207 96 356 216 462 374 86 128 152 306 122 324 -6 4 -9 1 -5 -7 8
-21 -13 -91 -50 -172 -35 -74 -150 -235 -169 -235 -8 0 -7 4 1 12 7 7 12 16
12 22 0 5 -14 -6 -30 -24 -17 -19 -39 -34 -50 -35 -27 -2 -19 7 47 51 56 38
73 53 70 64 -1 3 7 19 19 35 11 17 25 43 32 59 l13 28 -31 -30 c-17 -17 -40
-34 -52 -38 -13 -4 -39 -19 -58 -35 -19 -15 -46 -30 -60 -33 -14 -2 -62 -18
-106 -35 -45 -16 -106 -32 -135 -35 -30 -3 -45 -3 -34 0 160 39 221 63 308
123 67 46 149 140 190 219 21 39 45 73 55 75 16 4 16 5 -1 6 -11 1 -25 -12
-35 -30 -43 -79 -117 -181 -156 -216 -96 -84 -231 -145 -352 -159 -43 -5 -54
-4 -54 8 0 7 27 54 59 103 306 464 403 1082 244 1560 -52 157 -133 305 -199
365 -21 19 -18 13 10 -22 21 -26 35 -52 31 -58 -5 -8 -11 -8 -19 -1 -7 6 -16
8 -19 4 -4 -3 -7 3 -7 14 0 12 -6 23 -14 26 -11 5 -12 -1 -5 -31 6 -20 14 -46
19 -57 61 -137 105 -302 120 -450 14 -153 -31 -312 -110 -390 -50 -49 -97 -55
-171 -24 -52 23 -78 40 -124 84 -12 11 -40 33 -63 48 -24 15 -48 39 -54 52 -6
13 -15 22 -21 18 -6 -3 -8 -2 -4 3 3 5 -11 25 -31 44 -20 19 -30 27 -23 18 7
-10 9 -18 4 -18 -15 0 -158 152 -176 187 -17 32 -66 77 -75 68 -3 -3 5 -16 17
-29 12 -13 24 -32 26 -42 1 -11 8 -18 14 -17 6 2 11 -3 11 -10 0 -7 9 -18 21
-25 12 -8 18 -19 15 -28 -3 -8 -1 -14 4 -14 6 0 10 -5 10 -12 0 -7 13 -26 28
-43 28 -29 182 -275 182 -289 0 -4 13 -27 30 -51 31 -45 74 -162 109 -299 17
-63 21 -111 21 -226 0 -215 -17 -292 -101 -463 -65 -132 -139 -228 -288 -377
-119 -119 -132 -129 -241 -183 -135 -67 -193 -79 -229 -48 -20 17 -21 21 -7
21 27 0 184 77 261 128 94 62 252 217 314 307 71 103 136 243 168 360 23 86
27 121 27 245 1 215 -42 402 -143 615 -50 105 -215 360 -299 461 -27 32 -54
68 -60 79 -6 11 -12 15 -12 8 0 -6 30 -49 67 -95 90 -112 220 -313 276 -424
178 -356 209 -733 85 -1029 -73 -171 -205 -345 -352 -461 -79 -63 -300 -183
-312 -171 -4 3 0 21 9 39 55 120 85 349 67 519 -12 117 -37 226 -40 174 -1
-27 -2 -28 -11 -10 -6 14 -7 6 -3 -27 4 -38 2 -48 -9 -48 -10 0 -17 15 -21 45
-8 53 -22 58 -34 13 l-8 -33 -13 49 c-6 27 -14 47 -16 44 -2 -2 1 -59 7 -126
8 -86 8 -140 1 -184 -14 -81 -74 -241 -120 -320 -57 -97 -194 -228 -238 -228
-21 0 -18 5 22 48 73 76 132 161 178 252 42 84 86 207 84 239 0 9 -9 -15 -20
-54 -42 -147 -131 -307 -228 -407 -65 -69 -87 -61 -75 26 9 64 -15 247 -47
361 -26 94 -82 235 -93 235 -3 0 4 -21 15 -46 28 -67 18 -64 -14 4 -15 31 -36
68 -48 82 -19 23 -20 24 -9 2 6 -13 13 -44 16 -70 3 -26 9 -78 14 -117 32
-251 19 -440 -40 -570 -5 -11 -16 -42 -25 -70 -14 -43 -33 -80 -88 -170 -20
-33 -89 -127 -131 -178 -22 -26 -37 -48 -35 -50 68 -50 171 -93 239 -99 28 -2
36 -8 38 -25 2 -13 7 -23 12 -23 5 0 7 7 4 15 -5 11 0 15 17 14 28 0 98 17
149 38 19 7 47 16 61 18 41 8 120 45 125 60 3 7 12 16 20 19 10 4 12 2 8 -6
-4 -7 6 -2 23 10 17 12 36 22 43 22 17 0 71 30 110 61 40 32 167 82 183 72 6
-3 7 -1 3 5 -7 12 27 35 37 26 4 -5 157 96 225 149 6 5 12 7 12 4 0 -9 -243
-184 -345 -247 -187 -116 -425 -236 -585 -292 -70 -25 -180 -18 -293 17 -43
14 -101 25 -130 26 -135 3 -140 21 -38 148 173 217 252 362 298 547 24 97 27
128 28 279 0 131 -4 188 -18 248 -10 43 -21 77 -23 74 -2 -2 3 -35 12 -73 22
-87 25 -369 5 -459 -50 -234 -126 -379 -326 -616 l-103 -123 -79 -2 c-102 -1
-140 -20 -193 -95 -33 -47 -53 -63 -117 -97 -114 -58 -182 -72 -359 -72 -119
0 -154 -3 -172 -16 -12 -8 -22 -22 -22 -30 0 -28 -27 -25 -89 12 -48 28 -66
46 -81 79 -10 23 -27 48 -36 56 -9 7 -44 50 -77 94 -34 44 -82 103 -107 130
-26 28 -57 67 -69 88 -12 20 -28 37 -35 37 -34 0 -159 166 -223 295 -85 169
-113 293 -113 491 0 142 16 245 52 341 11 30 18 57 15 59 -2 3 -17 -31 -33
-75 -31 -88 -46 -104 -19 -19 29 86 28 87 -15 4 -44 -82 -66 -147 -98 -286
-42 -176 -48 -253 -28 -363 10 -59 12 -96 6 -112 -15 -41 -92 -46 -98 -7 -2
12 -12 24 -22 27 -10 3 -25 16 -33 28 -8 12 -41 49 -73 83 -66 68 -160 225
-193 322 -35 103 -23 94 22 -18 23 -58 68 -144 99 -190 63 -94 179 -220 201
-220 22 0 27 48 17 149 -20 185 27 479 96 614 8 15 12 27 9 27 -12 0 -57 -115
-80 -204 -34 -125 -49 -277 -42 -434 l5 -132 -27 19 c-41 29 -112 109 -158
176 -134 198 -194 419 -196 715 0 175 -13 158 -18 -25 l-3 -120 -5 115 -6 115
-24 -70 c-20 -60 -24 -94 -28 -240 -2 -93 0 -213 5 -265 5 -58 5 -106 -1 -123
-7 -20 -5 -38 7 -68 9 -23 15 -43 13 -46 -5 -5 -45 93 -78 192 -19 60 -24 98
-28 260 l-6 190 -9 -109 c-14 -181 4 -354 56 -519 17 -53 28 -100 25 -104 -11
-11 -190 83 -279 147 -177 127 -368 359 -437 532 -66 163 -91 339 -71 500 33
276 142 518 374 831 48 66 85 121 83 123 -3 3 -20 -14 -38 -38 -18 -24 -36
-45 -40 -48 -3 -3 -49 -68 -100 -146 -52 -77 -100 -149 -107 -160 -34 -51 16
38 62 111 91 145 212 299 226 290 9 -6 70 73 70 89 0 6 -9 -2 -20 -19 -11 -16
-20 -25 -20 -18 0 14 -39 5 -62 -15 -10 -8 -18 -20 -18 -26 0 -6 -13 -26 -30
-44 -16 -18 -30 -39 -30 -46 0 -7 -9 -23 -20 -36 -11 -13 -20 -27 -20 -32 0
-5 -4 -7 -9 -4 -5 3 -23 -16 -42 -42 -32 -46 -145 -151 -177 -164 -9 -4 -33
-23 -52 -44 -35 -37 -112 -94 -127 -94 -23 -1 -119 -57 -116 -67 6 -18 -12
-16 -27 2 -7 8 -29 24 -49 36 -41 23 -88 84 -102 132 -26 87 -31 361 -9 458
21 95 52 182 96 274 24 49 44 102 44 117 0 17 5 28 14 28 9 0 12 8 8 25 -4 21
-24 38 -21 18z m5878 -231 c50 -100 95 -228 105 -297 3 -22 3 -31 0 -20 -14
48 -73 222 -84 247 -7 15 -17 25 -23 21 -6 -3 -7 -1 -3 5 7 12 -13 62 -26 62
-4 0 -8 8 -8 18 0 10 -7 27 -15 38 -17 22 -20 38 -5 29 6 -4 32 -50 59 -103z
m118 -374 c-3 -7 -5 -2 -5 12 0 14 2 19 5 13 2 -7 2 -19 0 -25z m10 -55 c-3
-10 -5 -4 -5 12 0 17 2 24 5 18 2 -7 2 -21 0 -30z m10 -90 c-3 -10 -5 -2 -5
17 0 19 2 27 5 18 2 -10 2 -26 0 -35z m10 -85 c-3 -8 -6 -5 -6 6 -1 11 2 17 5
13 3 -3 4 -12 1 -19z m0 -100 c-2 -13 -4 -5 -4 17 -1 22 1 32 4 23 2 -10 2
-28 0 -40z m-10 -115 c-2 -16 -4 -5 -4 22 0 28 2 40 4 28 2 -13 2 -35 0 -50z
m-5646 0 c-12 -20 -14 -14 -5 12 4 9 9 14 11 11 3 -2 0 -13 -6 -23z m-18 -38
c-3 -9 -8 -14 -10 -11 -3 3 -2 9 2 15 9 16 15 13 8 -4z m5647 -90 c-7 -41 -15
-73 -18 -70 -3 2 1 38 9 79 7 42 15 73 17 71 3 -3 -1 -39 -8 -80z m-5696 -30
c-13 -38 -24 -62 -24 -53 0 19 40 131 45 126 2 -2 -7 -34 -21 -73z m5673 -77
c-3 -8 -6 -5 -6 6 -1 11 2 17 5 13 3 -3 4 -12 1 -19z m-5703 -37 c-4 -17 -9
-30 -11 -27 -3 2 -2 19 2 36 9 41 17 33 9 -9z m5693 -3 c-3 -8 -6 -5 -6 6 -1
11 2 17 5 13 3 -3 4 -12 1 -19z m-10 -40 c-3 -8 -6 -5 -6 6 -1 11 2 17 5 13 3
-3 4 -12 1 -19z m-5703 -37 c-4 -17 -9 -30 -11 -27 -3 2 -2 19 2 36 9 41 17
33 9 -9z m5675 -50 c-12 -34 -23 -60 -25 -58 -2 2 6 32 17 66 12 34 23 60 25
58 2 -2 -6 -32 -17 -66z m-5699 -98 c-9 -15 -10 -12 -6 16 3 18 7 43 8 55 1
11 3 4 5 -16 2 -21 -1 -46 -7 -55z m5592 -145 c-44 -90 -87 -172 -96 -183 -8
-11 26 64 77 166 50 103 94 185 95 184 2 -2 -32 -77 -76 -167z m-5585 -65 c-3
-10 -5 -4 -5 12 0 17 2 24 5 18 2 -7 2 -21 0 -30z m10 -45 c-3 -8 -6 -5 -6 6
-1 11 2 17 5 13 3 -3 4 -12 1 -19z m10 -40 c-3 -8 -6 -5 -6 6 -1 11 2 17 5 13
3 -3 4 -12 1 -19z m42 -123 c0 -5 -4 -3 -9 5 -5 8 -9 22 -9 30 0 16 17 -16 18
-35z m4340 -63 c1 -7 -3 -10 -9 -7 -5 3 -10 21 -9 38 1 31 1 31 9 7 4 -14 8
-31 9 -38z m-4259 -169 c39 -57 78 -101 102 -114 10 -5 -3 21 -29 57 -54 77
-133 214 -133 229 0 5 15 -18 34 -52 82 -153 236 -327 396 -447 99 -75 290
-169 325 -160 29 7 35 -15 10 -36 -33 -27 -221 44 -340 128 -164 117 -374 347
-427 469 -11 26 -29 67 -39 90 -35 77 -19 59 25 -29 24 -47 58 -108 76 -135z
m4347 145 c-2 -13 -4 -3 -4 22 0 25 2 35 4 23 2 -13 2 -33 0 -45z m-3563 -128
c3 -25 -3 -9 -14 35 -11 44 -19 96 -19 115 1 34 17 -40 33 -150z m3563 78 c-3
-8 -6 -5 -6 6 -1 11 2 17 5 13 3 -3 4 -12 1 -19z m-2997 -89 c-13 -80 -13
-253 0 -342 24 -165 139 -419 242 -533 10 -11 20 -30 23 -42 2 -11 8 -30 14
-40 8 -15 7 -21 -4 -26 -16 -6 -61 46 -118 136 -86 136 -134 256 -168 418 -19
90 -21 124 -15 239 6 128 23 267 33 258 2 -3 -1 -33 -7 -68z m2897 29 c-3 -7
-5 -2 -5 12 0 14 2 19 5 13 2 -7 2 -19 0 -25z m100 -75 c-2 -21 -4 -4 -4 37 0
41 2 58 4 38 2 -21 2 -55 0 -75z m-598 27 c0 -8 -7 1 -14 20 -18 46 -17 64 0
25 8 -16 14 -37 14 -45z m1791 -4 c0 -2 -8 -10 -17 -17 -16 -13 -17 -12 -4 4
13 16 21 21 21 13z m-4743 -38 c-3 -8 -6 -5 -6 6 -1 11 2 17 5 13 3 -3 4 -12
1 -19z m4699 3 c-9 -14 -145 -78 -259 -120 -137 -51 -196 -83 -266 -145 l-56
-48 56 54 c64 62 145 107 320 176 69 27 143 59 165 70 45 24 47 25 40 13z
m-1729 -33 c-3 -8 -6 -5 -6 6 -1 11 2 17 5 13 3 -3 4 -12 1 -19z m439 -35
c-18 -33 -21 -26 -6 13 6 15 13 24 16 21 3 -3 -1 -18 -10 -34z m128 -22 c-4
-23 -9 -40 -11 -37 -3 3 -2 23 2 46 4 23 9 39 11 37 3 -2 2 -23 -2 -46z m-546
-26 c0 -16 -2 -15 -8 5 -11 34 -11 60 0 35 5 -11 8 -29 8 -40z m-4047 -11 c94
-33 111 -42 103 -57 -4 -7 -4 -9 1 -5 11 10 76 -39 156 -117 36 -36 68 -62 72
-59 3 3 13 -6 22 -19 9 -14 33 -32 53 -40 35 -15 100 -75 282 -260 41 -42 80
-77 86 -77 13 0 50 -40 45 -48 -5 -8 134 -83 264 -143 110 -51 333 -137 435
-169 48 -14 54 -18 25 -14 -92 13 -392 131 -597 236 -255 129 -525 339 -700
543 -83 97 -168 167 -257 214 -42 22 -73 41 -70 41 3 0 39 -12 80 -26z m4066
-206 c-2 -13 -4 -3 -4 22 0 25 2 35 4 23 2 -13 2 -33 0 -45z m1113 8 c0 -2 -8
-10 -17 -17 -16 -13 -17 -12 -4 4 13 16 21 21 21 13z m-4191 -66 c0 -9 -4 -8
-9 5 -5 11 -9 27 -9 35 0 9 4 8 9 -5 5 -11 9 -27 9 -35z m4076 -65 c-32 -36
-60 -65 -63 -65 -5 0 8 16 82 98 54 59 39 33 -19 -33z m-988 -7 c-3 -8 -6 -5
-6 6 -1 11 2 17 5 13 3 -3 4 -12 1 -19z m913 -65 c0 -5 -17 -21 -38 -37 l-37
-29 34 36 c36 39 41 42 41 30z m-3082 -369 c-4 -3 -12 5 -18 18 -12 22 -12 22
6 6 10 -10 15 -20 12 -24z m72 -54 c36 -72 29 -96 -51 -172 -39 -38 -68 -68
-64 -68 26 0 160 103 160 123 0 7 9 12 19 12 25 0 185 -191 186 -221 0 -17 -8
-23 -35 -27 -48 -8 -88 -38 -118 -90 -14 -23 -37 -53 -51 -66 -34 -32 -33 -47
2 -23 79 54 185 112 216 117 28 6 45 2 79 -18 78 -46 79 -50 8 -118 -67 -63
-77 -94 -13 -41 20 18 61 46 89 64 41 26 56 41 66 73 l14 40 158 2 c184 3 245
15 364 75 70 35 92 52 132 104 28 34 63 67 81 75 48 20 126 15 183 -11 37 -16
80 -24 160 -30 149 -10 213 -35 254 -97 36 -54 49 -107 31 -128 -9 -11 -11
-37 -6 -93 3 -42 7 -112 7 -154 2 -81 7 -94 24 -56 11 24 13 24 170 59 113 24
209 65 315 133 167 108 364 182 560 210 144 21 316 70 453 130 l38 17 -7 -123
-7 -123 63 -130 c34 -71 73 -143 86 -158 13 -16 24 -35 24 -43 0 -20 -212
-375 -265 -443 -98 -127 -269 -257 -421 -321 -71 -29 -211 -74 -311 -100 -36
-9 -47 -19 -77 -69 -43 -71 -59 -85 -85 -76 -15 4 -26 23 -37 61 l-15 54 -44
0 c-23 0 -116 11 -205 25 -89 14 -181 25 -205 25 -42 0 -43 -1 -54 -42 -24
-95 -33 -175 -26 -260 7 -84 6 -88 -24 -145 -17 -32 -58 -89 -91 -128 -54 -62
-110 -156 -110 -185 0 -6 -15 -43 -34 -83 -41 -86 -124 -180 -215 -244 -36
-26 -90 -67 -120 -91 -75 -60 -101 -71 -173 -78 l-63 -5 30 23 c55 42 97 88
93 100 -3 7 -24 24 -49 38 -74 44 -61 83 40 121 137 51 132 105 -14 130 -110
18 -578 14 -700 -6 -110 -17 -131 -30 -121 -69 8 -31 42 -50 118 -66 50 -10
59 -15 65 -37 6 -27 6 -27 -66 -85 -44 -36 -15 -79 75 -114 24 -9 44 -21 44
-25 0 -5 -35 -9 -79 -9 -87 0 -71 -8 -237 119 -138 106 -189 161 -276 293
-111 169 -125 199 -137 308 -6 52 -9 96 -6 98 2 2 27 -30 56 -72 29 -41 54
-74 57 -72 7 8 -58 124 -99 176 -57 72 -93 163 -120 297 -12 61 -25 116 -29
123 -6 9 -15 7 -38 -10 -22 -16 -52 -25 -109 -31 -110 -11 -271 -11 -293 1
-22 12 -50 3 -50 -16 0 -7 -14 -29 -30 -48 -44 -49 -76 -44 -143 22 -29 29
-61 52 -72 52 -31 0 -246 75 -316 110 -244 122 -412 293 -521 527 -36 79 -56
113 -147 246 -42 61 -97 189 -118 272 -22 91 -10 131 60 187 56 44 164 98 197
98 12 0 33 -6 48 -14 15 -7 56 -19 92 -25 36 -7 97 -26 135 -43 83 -36 262
-91 360 -111 99 -21 166 -48 275 -112 168 -99 330 -173 430 -199 128 -33 206
-61 249 -90 20 -13 46 -27 58 -31 l22 -6 -30 -47 c-47 -75 -52 -108 -44 -308
6 -158 5 -186 -10 -213 -9 -18 -15 -46 -13 -64 2 -25 9 -32 34 -39 43 -11 94
-60 94 -90 0 -44 30 -115 54 -127 13 -7 47 -50 76 -94 49 -75 183 -251 218
-287 13 -13 13 -12 2 10 -7 14 -28 47 -47 74 -18 26 -33 59 -33 73 0 16 -20
47 -59 90 -35 37 -66 82 -74 106 -9 28 -20 43 -33 45 -11 2 -25 16 -31 32 -13
35 -5 38 29 10 48 -37 219 -119 273 -130 151 -31 355 80 355 194 0 18 -13 34
-51 61 -70 50 -212 187 -265 256 -23 31 -73 105 -109 165 -65 107 -66 110 -59
159 4 28 6 69 5 93 -1 33 5 55 28 92 29 48 30 48 8 54 -76 20 -161 -3 -237
-65 -34 -29 -56 -27 -45 4 4 8 27 32 52 51 57 44 47 46 -30 5 -76 -40 -98 -36
-103 16 -2 22 -7 72 -12 110 -11 81 -5 95 45 95 32 0 126 40 137 59 3 5 -26
-2 -65 -15 -39 -13 -79 -24 -88 -24 -32 0 -117 94 -140 154 -25 67 -26 76 -7
76 7 0 43 22 80 49 40 30 90 57 124 66 82 24 133 57 167 109 17 25 31 46 32
46 2 0 12 -18 23 -40z m-65 -1140 c30 -22 57 -50 59 -63 3 -12 7 -64 9 -116 3
-91 4 -95 35 -122 21 -19 43 -29 63 -29 20 0 29 -4 26 -12 -2 -8 16 -19 47
-29 28 -9 50 -21 48 -27 -1 -7 8 -12 20 -13 21 -1 21 -2 -5 -13 -38 -17 -182
6 -247 39 -55 28 -125 102 -151 160 -23 51 -36 145 -20 145 6 0 12 10 12 23 1
16 2 18 6 5 2 -10 9 -18 15 -18 7 0 9 19 6 50 -7 75 0 77 77 20z m36 -707 c13
-16 12 -17 -3 -4 -17 13 -22 21 -14 21 2 0 10 -8 17 -17z m59 -54 c0 -5 -4 -9
-10 -9 -5 0 -10 7 -10 16 0 8 5 12 10 9 6 -3 10 -10 10 -16z m1790 -699 c21
-228 65 -437 146 -694 19 -60 34 -115 34 -122 0 -7 -32 -32 -71 -55 -91 -53
-175 -136 -277 -275 -45 -61 -88 -117 -97 -124 -26 -22 -16 -30 31 -26 45 3
50 7 190 154 144 151 200 192 256 192 19 0 32 -9 46 -32 25 -42 55 -135 48
-147 -3 -5 3 -7 14 -4 27 7 80 -16 80 -34 0 -9 6 -13 14 -10 30 12 153 -153
143 -192 -4 -16 11 -20 147 -40 195 -29 223 -34 456 -87 195 -45 305 -79 317
-97 3 -5 -3 -7 -13 -4 -200 58 -998 128 -1789 157 -297 11 -1435 4 -1675 -10
-637 -37 -1074 -82 -1465 -149 -33 -6 -64 -11 -70 -11 -20 1 42 29 120 54 232
74 579 138 1035 192 74 9 141 19 148 23 15 9 -2 17 -128 66 -47 18 -102 40
-122 49 l-38 16 72 63 c109 95 140 161 224 481 42 158 93 413 129 649 15 97
32 177 36 177 5 0 9 -6 9 -13 0 -18 73 -122 108 -152 30 -27 114 -83 206 -136
73 -43 118 -93 190 -213 66 -110 123 -173 188 -205 26 -12 103 -36 170 -53
142 -35 192 -34 333 7 171 50 229 98 310 254 50 97 75 121 220 215 119 78 234
207 288 324 l22 47 2 -60 c2 -33 7 -112 13 -175z m-882 -297 c-10 -2 -28 -2
-40 0 -13 2 -5 4 17 4 22 1 32 -1 23 -4z m64 -23 c107 0 118 -2 118 -18 0 -41
-82 -94 -182 -116 -202 -46 -430 -15 -515 70 -70 69 -52 74 251 68 115 -2 262
-4 328 -4z m-224 -1252 c8 -8 12 -61 12 -172 0 -225 6 -263 41 -281 15 -8 53
-15 83 -15 47 0 57 4 76 27 20 26 21 36 19 238 l-2 210 164 -3 c109 -3 167 -8
172 -15 4 -7 6 -109 5 -227 -4 -251 -6 -259 -103 -356 -134 -134 -296 -180
-489 -139 -109 23 -203 88 -254 174 l-27 46 -3 254 c-3 203 -1 256 10 262 21
14 282 11 296 -3z m-724 -24 c3 -9 6 -116 6 -238 l0 -223 58 4 c31 2 108 8
171 14 79 7 118 6 125 -1 14 -14 -10 -57 -80 -145 -31 -39 -64 -80 -73 -92
-15 -18 -34 -23 -127 -32 -95 -9 -297 -22 -389 -25 l-30 -1 0 364 c0 233 4
365 10 367 8 3 196 17 296 23 16 0 29 -5 33 -15z m1781 -10 c198 -14 363 -29
367 -32 5 -6 12 -199 9 -255 -1 -17 -11 -18 -128 -15 l-128 3 0 -287 c0 -157
-3 -289 -6 -292 -8 -9 -136 61 -224 121 l-70 48 -3 213 c-1 116 -3 212 -5 212
-1 0 -49 3 -107 6 -162 8 -150 0 -150 98 0 46 3 111 6 145 l7 61 36 0 c20 0
198 -12 396 -26z m-2350 -34 c64 -25 164 -111 192 -164 11 -22 16 -66 17 -165
1 -164 -12 -202 -102 -289 -104 -102 -230 -152 -388 -152 -220 0 -388 121
-412 298 -19 136 24 258 125 352 116 109 234 152 403 147 80 -3 119 -9 165
-27z m2958 -13 l127 -12 2 -365 3 -365 -28 -3 c-38 -5 -279 26 -290 37 -5 5
-9 60 -9 122 -1 63 -6 122 -12 131 -7 12 -7 34 2 76 7 32 12 130 12 218 0 89
3 164 7 167 8 9 30 8 186 -6z m655 -53 c119 -41 229 -134 283 -240 28 -56 32
-75 36 -171 4 -94 2 -115 -16 -165 -25 -66 -69 -109 -151 -147 -51 -24 -65
-26 -180 -25 -110 1 -133 4 -194 28 -119 46 -207 123 -255 226 -23 49 -26 67
-26 165 0 100 2 115 28 167 40 82 120 143 227 174 54 16 184 9 248 -12z
m-4220 3 c8 -9 0 -34 -30 -92 -127 -253 -425 -815 -439 -829 -18 -19 -60 15
-105 86 -80 124 -218 358 -310 526 -49 89 -93 162 -97 162 -5 0 -5 -42 -1 -94
l7 -95 -39 -9 c-22 -6 -100 -21 -174 -33 -98 -18 -135 -28 -135 -38 0 -19 17
-20 115 -6 47 7 88 10 93 6 9 -9 16 -136 9 -163 -4 -19 -47 -33 -164 -58 -38
-7 -58 -16 -58 -26 0 -19 20 -18 188 11 80 14 151 24 159 21 10 -4 13 -34 13
-120 0 -101 -2 -115 -17 -120 -10 -3 -103 -26 -208 -51 -104 -25 -250 -59
-322 -77 -85 -21 -136 -29 -142 -23 -6 6 -6 28 -1 57 10 53 17 497 10 633 l-4
90 204 37 c113 21 297 53 410 72 113 20 248 44 300 55 73 15 98 17 107 8 7 -7
25 -48 42 -92 65 -175 100 -251 106 -230 3 11 36 92 73 180 54 127 73 163 93
172 23 11 233 49 285 52 12 1 26 -5 32 -12z m4670 -130 c91 -62 185 -142 332
-284 41 -40 75 -73 76 -73 1 0 -2 17 -7 38 -5 20 -9 88 -9 151 l0 113 68 -7
c93 -10 202 -31 213 -42 5 -5 10 -146 13 -313 2 -168 8 -363 12 -435 l7 -130
-69 62 c-38 33 -157 148 -265 255 l-197 193 5 -129 5 -129 -33 7 c-19 3 -79
14 -135 22 -56 9 -106 19 -111 23 -6 3 -12 149 -16 374 -6 298 -4 367 6 367 7
0 55 -28 105 -63z m-2786 -729 c3 -7 4 -70 3 -140 -3 -152 -14 -178 -90 -217
-44 -23 -62 -26 -145 -25 -52 1 -108 6 -123 12 -24 10 -28 17 -25 44 l3 33 87
6 c48 3 94 12 103 19 12 10 15 38 15 146 l0 134 84 0 c58 0 85 -4 88 -12z
m188 6 l35 -6 -1 -166 c0 -92 -1 -177 -2 -189 -2 -22 -6 -23 -86 -23 l-83 0
-5 173 c-3 94 -1 182 3 195 7 19 16 22 56 22 27 0 64 -3 83 -6z m-794 -16 c4
-6 7 -71 7 -144 -1 -158 -9 -176 -101 -221 -52 -26 -66 -28 -172 -28 -100 0
-120 3 -157 23 -62 33 -71 56 -74 212 l-3 135 79 7 c44 3 83 4 88 1 4 -2 7
-60 7 -127 0 -145 3 -151 81 -144 78 8 82 16 81 162 l-1 125 52 4 c29 2 64 4
79 5 15 1 30 -3 34 -10z m1312 -5 c24 -6 29 -37 16 -101 l-6 -30 -72 5 -71 6
3 -142 c3 -117 1 -142 -11 -147 -8 -3 -48 8 -89 24 l-73 29 -3 121 -3 121 -72
3 -72 3 -3 39 c-2 22 -1 50 3 64 l6 25 212 -7 c117 -4 222 -10 235 -13z m412
-33 c17 -9 21 -19 18 -53 -3 -47 11 -44 -139 -31 -51 4 -78 3 -83 -4 -9 -15
20 -28 83 -36 109 -14 151 -51 151 -134 0 -52 -30 -88 -83 -103 -54 -15 -186
-6 -257 18 -45 15 -56 22 -58 43 -2 14 3 33 11 43 12 17 19 18 72 8 79 -15
130 -14 144 3 14 16 -11 27 -104 46 -82 17 -125 59 -125 122 0 55 17 73 87 90
58 15 248 7 283 -12z m-2270 -174 l0 -183 -82 -6 c-45 -4 -83 -6 -84 -4 -1 1
-4 84 -6 184 l-3 182 30 4 c17 2 56 5 88 5 l57 2 0 -184z m2487 169 c2 -1 5
-55 8 -121 5 -137 11 -147 85 -142 l45 3 3 128 3 128 72 -3 72 -3 8 -55 c4
-30 7 -94 5 -142 -3 -75 -6 -90 -27 -112 -60 -64 -231 -75 -331 -20 -79 43
-89 67 -90 214 -1 69 -1 128 -1 133 1 6 140 -1 148 -8z m-2704 -136 c2 -134 2
-136 -26 -172 -16 -21 -47 -47 -70 -59 -51 -26 -168 -36 -221 -18 -30 10 -36
16 -36 40 0 38 15 47 95 53 99 7 105 17 105 167 l0 119 28 4 c15 2 49 4 75 3
l48 -1 2 -136z"/>
<path d="M3014 6931 c8 -13 145 -105 149 -100 2 2 -32 28 -75 57 -44 29 -77
48 -74 43z"/>
<path d="M4036 6442 c-61 -46 -71 -66 -28 -60 22 3 29 1 25 -9 -3 -7 0 -13 6
-13 19 0 78 27 86 40 4 7 -5 5 -23 -4 -44 -23 -52 -20 -17 5 17 12 22 18 13
15 -10 -3 -26 -9 -35 -12 -10 -3 -1 9 20 26 70 60 30 71 -47 12z"/>
<path d="M4334 6101 c-34 -16 -64 -33 -68 -39 -9 -15 115 35 133 53 22 22 4
18 -65 -14z"/>
<path d="M2505 6100 c-10 -16 6 -149 17 -147 6 1 16 -14 23 -33 8 -24 14 -30
18 -20 3 8 6 -3 6 -26 1 -32 13 -58 61 -127 78 -115 116 -159 201 -234 81 -71
190 -131 299 -164 93 -30 234 -31 324 -5 91 27 173 72 190 104 14 27 56 189
56 214 0 9 -18 13 -63 15 -76 2 -153 29 -272 98 -137 79 -222 119 -315 150
-47 15 -129 47 -182 71 -54 24 -99 44 -101 44 -6 0 0 -103 14 -243 6 -60 8
-111 5 -114 -11 -11 -68 97 -117 221 -27 72 -55 142 -62 154 -19 38 -87 66
-102 42z m340 -340 c15 -74 31 -143 37 -153 16 -31 -2 -34 -27 -4 -32 37 -43
82 -51 207 -9 142 7 123 41 -50z"/>
<path d="M7618 6090 c-14 -11 -36 -45 -49 -77 -55 -136 -155 -343 -165 -343
-12 0 8 275 23 310 8 19 26 45 41 57 22 19 14 17 -48 -11 -71 -32 -114 -47
-275 -97 -38 -12 -170 -72 -292 -134 -207 -105 -228 -114 -298 -120 -41 -4
-75 -8 -75 -10 0 -24 59 -169 81 -201 76 -105 322 -173 485 -133 123 30 290
135 416 263 60 61 188 236 228 310 16 31 32 51 35 46 15 -24 22 -7 8 21 -8 16
-17 49 -20 72 -8 66 -47 85 -95 47z m-257 -461 c-11 -36 -46 -77 -57 -66 -3 3
9 66 28 140 l33 135 3 -86 c2 -48 -1 -103 -7 -123z"/>
<path d="M5925 6025 c-5 -2 -30 -9 -54 -15 -24 -6 -54 -22 -67 -36 l-25 -24
27 -39 c25 -38 26 -45 22 -154 -3 -112 -4 -116 -36 -159 -17 -23 -57 -85 -88
-137 -65 -108 -140 -188 -271 -285 l-93 -69 22 -36 c57 -96 169 -171 256 -171
94 0 262 49 352 103 19 11 85 60 147 109 62 48 117 88 123 88 6 0 8 5 4 12 -4
6 -8 109 -9 227 -2 230 -13 299 -53 327 -11 7 -22 31 -25 52 -10 61 -68 164
-106 190 -31 20 -94 29 -126 17z m95 -488 c0 -17 -8 -36 -17 -43 -16 -12 -11
-13 35 -14 51 0 52 -1 52 -29 0 -44 -46 -160 -85 -213 -55 -75 -146 -118 -287
-134 -67 -8 -108 0 -108 21 0 15 42 37 64 34 19 -3 66 13 66 22 0 5 12 9 28 9
29 0 40 6 61 33 13 16 12 17 -14 7 -15 -6 -30 -8 -33 -5 -3 3 -1 5 5 5 6 0 22
12 37 26 24 25 26 32 26 123 l0 96 72 64 c66 59 73 62 85 45 7 -10 13 -31 13
-47z"/>
<path d="M3980 5896 c0 -2 7 -7 16 -10 8 -3 12 -2 9 4 -6 10 -25 14 -25 6z"/>
<path d="M4890 5810 c71 -66 84 -76 112 -90 27 -14 -16 24 -107 95 l-60 47 55
-52z"/>
<path d="M4805 5666 c-99 -32 -183 -74 -200 -100 -8 -12 -18 -37 -21 -54 l-7
-33 61 36 c33 19 63 35 67 35 4 0 20 9 35 20 16 12 68 29 115 40 95 20 121 32
54 23 -30 -4 -40 -3 -35 5 4 7 2 12 -5 12 -6 0 -1 9 12 20 31 25 13 25 -76 -4z
m-30 -39 c-16 -12 -30 -20 -30 -18 0 2 -10 -1 -22 -8 -15 -7 -23 -8 -23 -1 0
9 5 11 37 14 7 1 13 6 12 11 0 6 10 13 23 17 35 9 35 9 3 -15z m-118 -68 c-9
-6 -14 -16 -11 -22 5 -9 4 -9 -6 0 -15 14 -5 33 18 33 15 -1 15 -2 -1 -11z
m-32 -39 c-3 -5 -11 -10 -16 -10 -6 0 -7 5 -4 10 3 6 11 10 16 10 6 0 7 -4 4
-10z"/>
<path d="M3935 5100 c-3 -6 1 -7 9 -4 18 7 21 14 7 14 -6 0 -13 -4 -16 -10z"/>
<path d="M4408 5193 c7 -3 16 -2 19 1 4 3 -2 6 -13 5 -11 0 -14 -3 -6 -6z"/>
<path d="M6529 2853 c-13 -16 -12 -17 4 -4 9 7 17 15 17 17 0 8 -8 3 -21 -13z"/>
<path d="M3534 2175 c-17 -8 -44 -29 -59 -47 -24 -28 -27 -39 -22 -81 5 -59
36 -95 89 -104 125 -20 220 81 172 182 -27 58 -109 81 -180 50z"/>
<path d="M3760 1912 c0 -7 5 -12 11 -12 5 0 8 -4 5 -9 -9 -13 37 -28 64 -20
25 7 24 7 -4 8 -17 1 -40 11 -53 23 -13 12 -23 16 -23 10z"/>
<path d="M7253 2121 c-76 -48 -56 -181 35 -234 61 -36 158 -20 181 29 29 65 4
149 -59 196 -39 29 -118 34 -157 9z"/>
<path d="M7105 1890 c3 -5 11 -10 16 -10 6 0 7 5 4 10 -3 6 -11 10 -16 10 -6
0 -7 -4 -4 -10z"/>
<path d="M7630 1809 c0 -5 5 -7 10 -4 6 3 10 8 10 11 0 2 -4 4 -10 4 -5 0 -10
-5 -10 -11z"/>
<path d="M3790 1359 c0 -5 5 -7 10 -4 6 3 10 8 10 11 0 2 -4 4 -10 4 -5 0 -10
-5 -10 -11z"/>
<path d="M2215 9707 c-145 -297 -159 -596 -36 -788 16 -26 34 -50 41 -54 6 -4
-4 17 -24 46 -128 196 -109 524 49 833 25 49 43 91 41 94 -3 2 -35 -56 -71
-131z"/>
<path d="M2045 9700 c-9 -16 -13 -30 -11 -30 3 0 12 14 21 30 9 17 13 30 11
30 -3 0 -12 -13 -21 -30z"/>
<path d="M2978 9483 c7 -3 16 -2 19 1 4 3 -2 6 -13 5 -11 0 -14 -3 -6 -6z"/>
<path d="M2884 9428 c-28 -29 -86 -96 -129 -148 -127 -154 -215 -248 -291
-310 -91 -73 -179 -124 -205 -117 -11 3 -17 1 -13 -5 20 -32 160 53 291 176
45 42 130 136 190 209 59 72 132 158 162 189 30 32 52 58 50 58 -3 0 -28 -24
-55 -52z"/>
<path d="M7390 9320 c23 -27 44 -50 47 -50 3 0 -14 23 -37 50 -23 28 -44 50
-47 50 -3 0 14 -22 37 -50z"/>
<path d="M8031 9354 c0 -11 3 -14 6 -6 3 7 2 16 -1 19 -3 4 -6 -2 -5 -13z"/>
<path d="M8042 9285 c0 -16 2 -22 5 -12 2 9 2 23 0 30 -3 6 -5 -1 -5 -18z"/>
<path d="M7458 9233 c45 -62 162 -191 208 -227 36 -29 26 -15 -38 50 -48 49
-108 115 -134 147 -48 59 -70 77 -36 30z"/>
<path d="M8043 9195 c0 -33 2 -45 4 -27 2 18 2 45 0 60 -2 15 -4 0 -4 -33z"/>
<path d="M7720 8966 c0 -2 8 -10 18 -17 15 -13 16 -12 3 4 -13 16 -21 21 -21
13z"/>
<path d="M7760 8936 c0 -3 14 -12 30 -21 17 -9 30 -13 30 -11 0 3 -13 12 -30
21 -16 9 -30 13 -30 11z"/>
<path d="M7939 8883 c-13 -16 -12 -17 4 -4 16 13 21 21 13 21 -2 0 -10 -8 -17
-17z"/>
<path d="M3330 8206 c0 -2 11 -6 25 -8 13 -3 22 -1 19 3 -5 9 -44 13 -44 5z"/>
<path d="M1650 8180 c-8 -5 -12 -11 -10 -14 3 -2 14 2 24 10 22 15 10 19 -14
4z"/>
<path d="M6772 8160 c0 -19 2 -27 5 -17 2 9 2 25 0 35 -3 9 -5 1 -5 -18z"/>
<path d="M6880 8171 c0 -6 4 -13 10 -16 6 -3 7 1 4 9 -7 18 -14 21 -14 7z"/>
<path d="M6783 8075 c0 -22 2 -30 4 -17 2 12 2 30 0 40 -3 9 -5 -1 -4 -23z"/>
<path d="M6921 8100 c0 -3 6 -25 13 -50 8 -25 15 -36 15 -25 0 17 -26 88 -28
75z"/>
<path d="M3241 8054 c0 -11 3 -14 6 -6 3 7 2 16 -1 19 -3 4 -6 -2 -5 -13z"/>
<path d="M3231 8014 c0 -11 3 -14 6 -6 3 7 2 16 -1 19 -3 4 -6 -2 -5 -13z"/>
<path d="M6792 7959 c-1 -42 -4 -105 -7 -140 l-4 -64 10 60 c5 33 8 96 6 140
l-3 80 -2 -76z"/>
<path d="M3990 8006 c0 -2 13 -6 29 -8 17 -2 28 -1 25 4 -5 8 -54 12 -54 4z"/>
<path d="M3221 7964 c0 -11 3 -14 6 -6 3 7 2 16 -1 19 -3 4 -6 -2 -5 -13z"/>
<path d="M6126 7963 c-6 -14 -5 -15 5 -6 7 7 10 15 7 18 -3 3 -9 -2 -12 -12z"/>
<path d="M6230 7945 c19 -19 36 -35 39 -35 3 0 -10 16 -29 35 -19 19 -36 35
-39 35 -3 0 10 -16 29 -35z"/>
<path d="M6131 7920 c0 -8 4 -24 9 -35 5 -13 9 -14 9 -5 0 8 -4 24 -9 35 -5
13 -9 14 -9 5z"/>
<path d="M6772 7730 c0 -14 2 -19 5 -12 2 6 2 18 0 25 -3 6 -5 1 -5 -13z"/>
<path d="M3797 7200 c3 -41 7 -77 9 -79 7 -8 34 22 34 37 0 8 -6 23 -14 31 -8
9 -19 32 -25 51 -8 29 -9 21 -4 -40z"/>
</g>
</svg>
